<?xml version="1.0" encoding="iso-8859-1"?>
<!-- Generator: Adobe Illustrator 19.0.0, SVG Export Plug-In . SVG Version: 6.00 Build 0)  -->
<svg xmlns="http://www.w3.org/2000/svg" xmlns:xlink="http://www.w3.org/1999/xlink" version="1.1" id="Capa_1" x="0px" y="0px" viewBox="0 0 502.626 502.626" style="enable-background:new 0 0 502.626 502.626;" xml:space="preserve" width="18px" height="18px">
<g>
	<g>
		<g>
			<path d="M422.251,180.181C417.936,79.877,343.215,0,251.345,0C159.454,0,84.711,79.877,80.418,180.159     c-13.439,3.581-23.361,15.682-23.361,30.199v78.065c0,17.321,14.021,31.364,31.385,31.364s31.407-14.021,31.407-31.364h0.022     v-6.04c14.841,69.091,50.799,158.567,131.474,158.567c80.632,0,116.612-89.411,131.474-158.502v5.975     c0,13.827,9.017,25.41,21.398,29.595c-0.884,15.811-9.448,99.355-91.093,134.235c-5.112-3.171-11.325-4.228-17.494-2.028     l-35.915,13.331c-10.44,3.861-15.768,15.488-11.929,25.863c3.904,10.462,15.466,15.79,25.928,11.972l35.915-13.309     c7.83-2.891,12.791-10.138,13.158-17.947c91.46-40.445,100.843-136.974,101.749-152.268     c12.166-4.249,21.032-15.747,21.032-29.444v-78.065C445.59,195.863,435.646,183.74,422.251,180.181z M251.345,59.557     c-71.421,0-130.266,56.71-139.434,130.137c-2.438-2.761-5.328-5.026-8.564-6.795c2.977-87.513,68.013-157.445,147.997-157.445     c79.963,0,144.999,69.932,147.976,157.445c-3.214,1.769-6.105,4.034-8.542,6.752C381.611,116.245,322.766,59.557,251.345,59.557z     " fill="#FFFFFF"/>
		</g>
	</g>
	<g>
	</g>
	<g>
	</g>
	<g>
	</g>
	<g>
	</g>
	<g>
	</g>
	<g>
	</g>
	<g>
	</g>
	<g>
	</g>
	<g>
	</g>
	<g>
	</g>
	<g>
	</g>
	<g>
	</g>
	<g>
	</g>
	<g>
	</g>
	<g>
	</g>
</g>
<g>
</g>
<g>
</g>
<g>
</g>
<g>
</g>
<g>
</g>
<g>
</g>
<g>
</g>
<g>
</g>
<g>
</g>
<g>
</g>
<g>
</g>
<g>
</g>
<g>
</g>
<g>
</g>
<g>
</g>
</svg>
